<svg width="24" height="24" viewBox="0 0 24 24" fill="none" xmlns="http://www.w3.org/2000/svg">
<path fill-rule="evenodd" clip-rule="evenodd" d="M0.57657 23.4234C1.36204 24.2089 2.13043 24.1918 2.88175 23.3722L12 14.3564L21.1183 23.3722C21.8696 24.1918 22.638 24.2089 23.4234 23.4234C24.2089 22.638 24.1918 21.8696 23.3722 21.1183L14.3564 12L23.3722 2.88175C24.1918 2.13043 24.2089 1.36204 23.4234 0.576568C22.638 -0.208901 21.8696 -0.191827 21.1183 0.627798L12 9.6436L2.88175 0.627798C2.13043 -0.191827 1.36204 -0.208901 0.57657 0.576568C-0.208902 1.36204 -0.191826 2.13043 0.627796 2.88175L9.6436 12L0.627796 21.1183C-0.191826 21.8696 -0.208902 22.638 0.57657 23.4234Z" fill="white"/>
</svg>
