<svg width="32" height="23" viewBox="0 0 32 23" fill="none" xmlns="http://www.w3.org/2000/svg">
<path fill-rule="evenodd" clip-rule="evenodd" d="M1.6 12.8H30.4C30.8667 12.8 31.25 12.65 31.55 12.35C31.85 12.05 32 11.6667 32 11.2C32 10.7333 31.85 10.35 31.55 10.05C31.25 9.75 30.8667 9.6 30.4 9.6H1.6C1.13333 9.6 0.750001 9.75 0.45 10.05C0.149999 10.35 0 10.7333 0 11.2C0 11.6667 0.149999 12.05 0.45 12.35C0.750001 12.65 1.13333 12.8 1.6 12.8ZM1.6 3.2H30.4C30.8667 3.2 31.25 3.05 31.55 2.75C31.85 2.45 32 2.06667 32 1.6C32 1.13333 31.85 0.750003 31.55 0.449997C31.25 0.149997 30.8667 0 30.4 0H1.6C1.13333 0 0.750001 0.149997 0.45 0.449997C0.149999 0.750003 0 1.13333 0 1.6C0 2.06667 0.149999 2.45 0.45 2.75C0.750001 3.05 1.13333 3.2 1.6 3.2ZM1.6 22.4H30.4C30.8667 22.4 31.25 22.25 31.55 21.95C31.85 21.65 32 21.2667 32 20.8C32 20.3333 31.85 19.95 31.55 19.65C31.25 19.35 30.8667 19.2 30.4 19.2H1.6C1.13333 19.2 0.750001 19.35 0.45 19.65C0.149999 19.95 0 20.3333 0 20.8C0 21.2667 0.149999 21.65 0.45 21.95C0.750001 22.25 1.13333 22.4 1.6 22.4Z" fill="white"/>
</svg>
